<mxfile host="app.diagrams.net" agent="Mozilla/5.0 (Windows NT 10.0; Win64; x64) AppleWebKit/537.36 (KHTML, like Gecko) Chrome/138.0.0.0 YaBrowser/25.8.0.0 Safari/537.36" version="28.2.5">
  <diagram name="Страница — 1" id="oWDzyiwuJk1K7y43oAF8">
    <mxGraphModel dx="902" dy="490" grid="1" gridSize="10" guides="1" tooltips="1" connect="1" arrows="1" fold="1" page="1" pageScale="1" pageWidth="2339" pageHeight="3300" math="0" shadow="0">
      <root>
        <mxCell id="0" />
        <mxCell id="1" parent="0" />
        <mxCell id="kq8jIIcazYTT48XamDDO-11" style="edgeStyle=orthogonalEdgeStyle;rounded=0;orthogonalLoop=1;jettySize=auto;html=1;exitX=0.5;exitY=1;exitDx=0;exitDy=0;entryX=0.5;entryY=0;entryDx=0;entryDy=0;strokeWidth=2;endArrow=none;endFill=0;" parent="1" source="kq8jIIcazYTT48XamDDO-1" target="kq8jIIcazYTT48XamDDO-4" edge="1">
          <mxGeometry relative="1" as="geometry" />
        </mxCell>
        <mxCell id="kq8jIIcazYTT48XamDDO-1" value="Начало" style="rounded=1;whiteSpace=wrap;html=1;arcSize=50;" parent="1" vertex="1">
          <mxGeometry x="490" y="30" width="120" height="60" as="geometry" />
        </mxCell>
        <mxCell id="kq8jIIcazYTT48XamDDO-2" value="Конец" style="rounded=1;whiteSpace=wrap;html=1;arcSize=50;" parent="1" vertex="1">
          <mxGeometry x="490.01" y="470" width="120" height="60" as="geometry" />
        </mxCell>
        <mxCell id="kq8jIIcazYTT48XamDDO-12" style="edgeStyle=orthogonalEdgeStyle;rounded=0;orthogonalLoop=1;jettySize=auto;html=1;exitX=0.5;exitY=1;exitDx=0;exitDy=0;entryX=0.5;entryY=0;entryDx=0;entryDy=0;strokeWidth=2;endArrow=none;endFill=0;" parent="1" source="kq8jIIcazYTT48XamDDO-4" target="kq8jIIcazYTT48XamDDO-5" edge="1">
          <mxGeometry relative="1" as="geometry" />
        </mxCell>
        <mxCell id="kq8jIIcazYTT48XamDDO-4" value="d, m, y, d_n, m_n, y_n, dif_d, dif_m;" style="rounded=0;whiteSpace=wrap;html=1;" parent="1" vertex="1">
          <mxGeometry x="438.43" y="110" width="223.13" height="40" as="geometry" />
        </mxCell>
        <mxCell id="koJbh_vy2SjfinHMvm56-3" style="edgeStyle=orthogonalEdgeStyle;rounded=0;orthogonalLoop=1;jettySize=auto;html=1;exitX=0.5;exitY=1;exitDx=0;exitDy=0;entryX=0.5;entryY=0;entryDx=0;entryDy=0;strokeWidth=2;endArrow=none;endFill=0;" parent="1" source="kq8jIIcazYTT48XamDDO-5" target="koJbh_vy2SjfinHMvm56-1" edge="1">
          <mxGeometry relative="1" as="geometry" />
        </mxCell>
        <mxCell id="kq8jIIcazYTT48XamDDO-5" value="Ввод дат" style="shape=parallelogram;perimeter=parallelogramPerimeter;whiteSpace=wrap;html=1;fixedSize=1;" parent="1" vertex="1">
          <mxGeometry x="485" y="170" width="130" height="50" as="geometry" />
        </mxCell>
        <mxCell id="kq8jIIcazYTT48XamDDO-27" style="edgeStyle=orthogonalEdgeStyle;rounded=0;orthogonalLoop=1;jettySize=auto;html=1;exitX=0.5;exitY=1;exitDx=0;exitDy=0;entryX=0.5;entryY=0;entryDx=0;entryDy=0;strokeWidth=2;endArrow=none;endFill=0;" parent="1" source="kq8jIIcazYTT48XamDDO-26" target="kq8jIIcazYTT48XamDDO-2" edge="1">
          <mxGeometry relative="1" as="geometry" />
        </mxCell>
        <mxCell id="kq8jIIcazYTT48XamDDO-26" value="Вывод возраста" style="shape=parallelogram;perimeter=parallelogramPerimeter;whiteSpace=wrap;html=1;fixedSize=1;" parent="1" vertex="1">
          <mxGeometry x="476.26" y="400" width="147.51" height="50" as="geometry" />
        </mxCell>
        <mxCell id="k7snhekD9ddKXzG74v0h-3" style="edgeStyle=orthogonalEdgeStyle;rounded=0;orthogonalLoop=1;jettySize=auto;html=1;exitX=0.5;exitY=1;exitDx=0;exitDy=0;entryX=0.5;entryY=0;entryDx=0;entryDy=0;endArrow=none;endFill=0;strokeWidth=2;" parent="1" target="kq8jIIcazYTT48XamDDO-26" edge="1">
          <mxGeometry relative="1" as="geometry">
            <mxPoint x="550.02" y="380" as="sourcePoint" />
          </mxGeometry>
        </mxCell>
        <mxCell id="koJbh_vy2SjfinHMvm56-4" style="edgeStyle=orthogonalEdgeStyle;rounded=0;orthogonalLoop=1;jettySize=auto;html=1;exitX=0.5;exitY=1;exitDx=0;exitDy=0;entryX=0.5;entryY=0;entryDx=0;entryDy=0;strokeWidth=2;endArrow=none;endFill=0;" parent="1" source="koJbh_vy2SjfinHMvm56-1" target="koJbh_vy2SjfinHMvm56-2" edge="1">
          <mxGeometry relative="1" as="geometry" />
        </mxCell>
        <mxCell id="koJbh_vy2SjfinHMvm56-1" value="dif_d = (d &amp;gt;= d_n);&lt;div&gt;m -= dif_d;&lt;/div&gt;" style="rounded=0;whiteSpace=wrap;html=1;" parent="1" vertex="1">
          <mxGeometry x="484.99" y="240" width="130.01" height="60" as="geometry" />
        </mxCell>
        <mxCell id="koJbh_vy2SjfinHMvm56-2" value="dif_m = (m &amp;gt;= m_n);&lt;div&gt;y -= dif_m;&lt;/div&gt;" style="rounded=0;whiteSpace=wrap;html=1;" parent="1" vertex="1">
          <mxGeometry x="485.01" y="320" width="130" height="60" as="geometry" />
        </mxCell>
      </root>
    </mxGraphModel>
  </diagram>
</mxfile>
